<svg width="128" height="65" viewBox="0 0 128 65" fill="none" xmlns="http://www.w3.org/2000/svg">
<path d="M3.30902 37.6191H6.93516V55.3229H3.30902V37.6191Z" fill="#EF2C34"/>
<path d="M9.03832 49.2571C9.03592 47.9855 9.41243 46.7417 10.1202 45.6833C10.828 44.6248 11.8352 43.7992 13.0144 43.3109C14.1936 42.8226 15.4917 42.6937 16.7446 42.9403C17.9975 43.1869 19.1487 43.798 20.0525 44.6964C20.9564 45.5947 21.5724 46.7398 21.8224 47.9868C22.0725 49.2338 21.9454 50.5267 21.4572 51.7018C20.969 52.8767 20.1417 53.8812 19.08 54.5879C18.0183 55.2947 16.7699 55.6719 15.4929 55.6719C14.6435 55.6815 13.8008 55.5224 13.0142 55.2035C12.2275 54.8847 11.5126 54.4128 10.9115 53.8153C10.3104 53.2179 9.83503 52.507 9.51337 51.7242C9.19172 50.9415 9.03021 50.1028 9.03832 49.2571ZM18.297 49.2571C18.2828 48.7082 18.1063 48.1756 17.7896 47.7261C17.4729 47.2764 17.0302 46.9299 16.5166 46.7295C16.0031 46.5292 15.4417 46.4842 14.9027 46.5999C14.3635 46.7156 13.8707 46.9871 13.4857 47.3803C13.1008 47.7735 12.8409 48.271 12.7384 48.8107C12.6359 49.3502 12.6955 49.9079 12.9097 50.4139C13.124 50.9198 13.4833 51.3518 13.9427 51.6555C14.4022 51.9592 14.9413 52.1213 15.4929 52.1215C15.8701 52.132 16.2455 52.0646 16.5953 51.9234C16.9452 51.7822 17.2618 51.5704 17.5254 51.3012C17.7888 51.032 17.9935 50.7115 18.1262 50.3597C18.2591 50.0078 18.3172 49.6325 18.297 49.2571Z" fill="#EF2C34"/>
<path d="M36.5243 43.1913V54.7211C36.5243 58.801 33.3212 60.5221 30.0819 60.5221C28.9428 60.6065 27.8024 60.3771 26.7854 59.8591C25.7684 59.3412 24.9143 58.5545 24.3164 57.5855L27.4349 55.7923C27.6823 56.2888 28.0738 56.7001 28.5587 56.9726C29.0436 57.2451 29.5995 57.3664 30.1545 57.3207C30.5195 57.3814 30.8938 57.3576 31.2484 57.2514C31.6029 57.1452 31.9282 56.9594 32.1992 56.7082C32.47 56.4569 32.6794 56.1471 32.8111 55.8026C32.9428 55.4581 32.9933 55.0881 32.9586 54.7211V53.6018C32.5323 54.1241 31.9883 54.5389 31.371 54.8128C30.7537 55.0867 30.0801 55.212 29.405 55.1785C27.7637 55.1785 26.1897 54.5293 25.029 53.3737C23.8684 52.2181 23.2164 50.6507 23.2164 49.0164C23.2164 47.3821 23.8684 45.8148 25.029 44.6592C26.1897 43.5036 27.7637 42.8544 29.405 42.8544C30.0797 42.8236 30.7522 42.9502 31.3692 43.2238C31.9862 43.4976 32.5304 43.9109 32.9586 44.4309V43.2274L36.5243 43.1913ZM32.9586 49.0164C32.9828 48.4311 32.8305 47.852 32.5215 47.3534C32.2123 46.8549 31.7606 46.4598 31.2243 46.2191C30.688 45.9782 30.0915 45.9026 29.5117 46.002C28.9318 46.1013 28.3951 46.3711 27.9705 46.7765C27.5458 47.1821 27.2527 47.7048 27.1288 48.2774C27.0048 48.85 27.0557 49.4466 27.275 49.9902C27.4943 50.5339 27.8717 50.9998 28.359 51.3281C28.8463 51.6565 29.421 51.8321 30.0093 51.8326C30.3935 51.8597 30.7789 51.8064 31.1409 51.676C31.503 51.5456 31.8336 51.3413 32.1115 51.076C32.3892 50.8106 32.6082 50.4902 32.7542 50.1355C32.9001 49.7808 32.9697 49.3996 32.9586 49.0164Z" fill="#EF2C34"/>
<path d="M38.6154 49.2571C38.613 47.9855 38.9896 46.7417 39.6973 45.6833C40.4051 44.6248 41.4123 43.7992 42.5915 43.3109C43.7706 42.8226 45.0688 42.6937 46.3216 42.9403C47.5745 43.1869 48.7257 43.798 49.6297 44.6964C50.5335 45.5947 51.1494 46.7398 51.3995 47.9868C51.6495 49.2338 51.5224 50.5267 51.0342 51.7018C50.546 52.8767 49.7188 53.8812 48.6571 54.5879C47.5954 55.2947 46.347 55.6719 45.0699 55.6719C44.2207 55.6815 43.3779 55.5224 42.5912 55.2035C41.8045 54.8847 41.0896 54.4128 40.4886 53.8153C39.8875 53.2179 39.4121 52.507 39.0904 51.7242C38.7688 50.9415 38.6072 50.1028 38.6154 49.2571ZM47.8742 49.2571C47.8598 48.7082 47.6833 48.1756 47.3666 47.7261C47.05 47.2764 46.6072 46.9299 46.0937 46.7295C45.5803 46.5292 45.0189 46.4842 44.4797 46.5999C43.9406 46.7156 43.4478 46.9871 43.0628 47.3803C42.6779 47.7735 42.4179 48.271 42.3154 48.8107C42.213 49.3502 42.2726 49.9079 42.4868 50.4139C42.701 50.9198 43.0603 51.3518 43.5197 51.6555C43.9792 51.9592 44.5184 52.1213 45.0699 52.1215C45.4452 52.1286 45.818 52.0587 46.165 51.916C46.5119 51.7733 46.8256 51.5609 47.0864 51.2921C47.3473 51.0235 47.5497 50.7039 47.6811 50.3538C47.8125 50.0037 47.8699 49.6303 47.85 49.2571H47.8742Z" fill="#EF2C34"/>
<path d="M53.2046 39.9419C53.2046 39.5087 53.3336 39.0851 53.5753 38.725C53.8171 38.3648 54.1606 38.084 54.5625 37.9182C54.9646 37.7524 55.4068 37.7091 55.8336 37.7936C56.2603 37.8781 56.6523 38.0867 56.96 38.393C57.2677 38.6993 57.4771 39.0896 57.562 39.5145C57.647 39.9394 57.6033 40.3799 57.4369 40.7801C57.2704 41.1803 56.9884 41.5225 56.6267 41.7631C56.2648 42.0038 55.8396 42.1322 55.4044 42.1322C54.822 42.1292 54.2643 41.8973 53.8524 41.4872C53.4405 41.0772 53.2078 40.5219 53.2046 39.9419ZM53.5792 43.1914H57.2054V55.3229H53.5792V43.1914Z" fill="white"/>
<path d="M73.0151 49.2571C73.059 50.059 72.9433 50.8617 72.6745 51.6189C72.4056 52.3761 71.9891 53.0729 71.4487 53.6691C70.9083 54.2653 70.2548 54.7492 69.5259 55.093C68.7969 55.4367 68.0069 55.6335 67.2013 55.672C66.5249 55.7042 65.8496 55.5885 65.2231 55.3327C64.5966 55.0769 64.034 54.6874 63.5751 54.1916V60.2092H59.949V43.1914H63.5751V44.3347C64.034 43.8389 64.5966 43.4494 65.2231 43.1936C65.8496 42.9379 66.5249 42.8221 67.2013 42.8544C68.0059 42.8929 68.7949 43.0893 69.5229 43.4322C70.2511 43.7753 70.904 44.2581 71.4442 44.8531C71.9845 45.448 72.4013 46.1432 72.6708 46.899C72.9405 47.6548 73.0575 48.4562 73.0151 49.2571ZM69.389 49.2571C69.3747 48.6923 69.1942 48.144 68.87 47.6802C68.5458 47.2165 68.0921 46.8575 67.5652 46.648C67.0382 46.4383 66.4609 46.3872 65.9051 46.501C65.3492 46.6147 64.839 46.8883 64.4377 47.2879C64.0365 47.6874 63.7618 48.1953 63.6475 48.7489C63.5333 49.3024 63.5846 49.8771 63.7951 50.4018C64.0056 50.9265 64.3661 51.3783 64.8318 51.701C65.2976 52.0238 65.8483 52.2035 66.4156 52.2178C66.8115 52.2429 67.2082 52.1833 67.5791 52.0431C67.9499 51.9028 68.2863 51.6851 68.5657 51.4047C68.845 51.1242 69.061 50.7874 69.1988 50.4171C69.3366 50.0467 69.3933 49.6512 69.3648 49.2571H69.389Z" fill="white"/>
<path d="M84.3047 51.6882C84.3047 54.4804 81.8872 55.6719 79.228 55.6719C78.1658 55.7655 77.0997 55.5405 76.1669 55.0257C75.2343 54.5109 74.4776 53.73 73.9944 52.7834L77.1612 50.9902C77.2897 51.428 77.5649 51.8088 77.9409 52.0693C78.3169 52.3298 78.7711 52.4545 79.228 52.4224C80.1105 52.4224 80.5456 52.1455 80.5456 51.6642C80.5456 50.3282 74.502 51.0384 74.502 46.8501C74.502 44.2023 76.7502 42.8663 79.3368 42.8663C80.2913 42.8375 81.2362 43.0633 82.0736 43.5204C82.911 43.9775 83.6103 44.6493 84.0992 45.466L80.9203 47.1269C80.7799 46.809 80.5498 46.5386 80.2579 46.3484C79.9661 46.1583 79.6252 46.0566 79.2764 46.0557C78.648 46.0557 78.2611 46.2964 78.2611 46.7417C78.3095 48.1257 84.3047 47.199 84.3047 51.6882Z" fill="white"/>
<path d="M97.6488 43.1913V55.3229H94.0225V54.1916C93.6008 54.6943 93.0655 55.0904 92.4604 55.3477C91.8555 55.6051 91.1978 55.7161 90.5414 55.672C88.124 55.672 85.9846 53.9268 85.9846 50.6412V43.1913H89.6107V50.1117C89.5789 50.4066 89.6134 50.7048 89.7117 50.9848C89.81 51.2649 89.9696 51.5195 90.1792 51.7304C90.3886 51.9414 90.6427 52.1031 90.9227 52.204C91.2028 52.3051 91.5021 52.3426 91.7985 52.3142C93.1282 52.3142 94.0589 51.5438 94.0589 49.8229V43.1913H97.6488Z" fill="white"/>
<path d="M118.608 47.885V55.3228H114.981V48.198C114.981 46.9945 114.389 46.2001 113.229 46.2001C112.069 46.2001 111.319 47.0547 111.319 48.4868V55.3228H107.693V48.198C107.693 46.9945 107.113 46.2001 105.94 46.2001C104.768 46.2001 104.043 47.0547 104.043 48.4868V55.3228H100.417V43.1914H104.043V44.3106C104.422 43.8163 104.919 43.4241 105.489 43.1698C106.059 42.9154 106.684 42.807 107.306 42.8544C107.932 42.824 108.554 42.9557 109.113 43.2361C109.673 43.5166 110.149 43.9366 110.497 44.455C110.902 43.913 111.438 43.4818 112.055 43.2019C112.672 42.9221 113.351 42.8024 114.027 42.8544C116.783 42.8544 118.608 44.8522 118.608 47.885Z" fill="white"/>
<path d="M121.702 43.1192C123.197 43.1192 124.41 41.9121 124.41 40.4233C124.41 38.9344 123.197 37.7274 121.702 37.7274C120.207 37.7274 118.995 38.9344 118.995 40.4233C118.995 41.9121 120.207 43.1192 121.702 43.1192Z" fill="white"/>
<path d="M44.3447 28.4362C51.3473 28.4362 57.024 22.7838 57.024 15.8112C57.024 8.83865 51.3473 3.18625 44.3447 3.18625C37.3421 3.18625 31.6653 8.83865 31.6653 15.8112C31.6653 22.7838 37.3421 28.4362 44.3447 28.4362Z" fill="white"/>
<path d="M72.6889 28.4362C79.6915 28.4362 85.3682 22.7838 85.3682 15.8112C85.3682 8.83865 79.6915 3.18625 72.6889 3.18625C65.6863 3.18625 60.0095 8.83865 60.0095 15.8112C60.0095 22.7838 65.6863 28.4362 72.6889 28.4362Z" fill="#EF2C34"/>
<path d="M28.6798 3.18625H3.33319V28.4241H28.6798V3.18625Z" fill="#EF2C34"/>
</svg>
